<svg width="32" height="32" viewBox="122 0 33 32" xmlns="http://www.w3.org/2000/svg">
  <rect x="122" y="0" width="33" height="32" fill="#003399"/>
  <path d="M137.13.717a16.339 16.339 0 0 1 2.947 0l.536 3.206a12.54 12.54 0 0 1 2.362.633c.687-.835 1.376-1.667 2.064-2.501.894.402 1.748.903 2.551 1.471l-1.134 3.042c.637.52 1.218 1.107 1.739 1.742l3.033-1.137c.562.81 1.073 1.657 1.469 2.561-.833.688-1.663 1.377-2.495 2.067.282.768.505 1.559.633 2.367 1.237.225 2.537.342 3.191.45.041.582.053 2.162.006 3.042l-3.197.539c-.128.808-.351 1.6-.633 2.367.83.69 1.662 1.379 2.495 2.069-.4.901-.903 1.754-1.469 2.558-1.01-.378-2.023-.755-3.033-1.134a12.664 12.664 0 0 1-1.739 1.742l1.134 3.04a15.11 15.11 0 0 1-2.551 1.471l-2.064-2.5c-.764.287-1.557.504-2.362.634l-.536 3.204c-.981.09-1.966.09-2.947 0-.18-1.067-.358-2.136-.539-3.204a12.235 12.235 0 0 1-2.36-.635l-2.063 2.501a15.216 15.216 0 0 1-2.551-1.471c.376-1.014.754-2.026 1.131-3.04a11.861 11.861 0 0 1-1.727-1.742l-3.042 1.134a15.32 15.32 0 0 1-1.469-2.558l2.495-2.07a12.675 12.675 0 0 1-.633-2.366l-3.197-.539a17.293 17.293 0 0 1 0-2.953l3.197-.539a12.84 12.84 0 0 1 .633-2.367l-2.495-2.067c.397-.904.905-1.754 1.469-2.56l3.042 1.136a11.765 11.765 0 0 1 1.727-1.742l-1.131-3.042a15.353 15.353 0 0 1 2.551-1.471c.687.834 1.377 1.666 2.064 2.5a12.746 12.746 0 0 1 2.36-.632l.538-3.206Zm6.123 4.521h-9.301v2.204c-3.057 1.586-5.14 4.878-5.222 8.348-.188 3.55 1.707 7.101 4.766 8.885.677.954 1.23 2.03 1.858 3.03l1.104-1.839a9.96 9.96 0 0 0 4.29 0l1.103 1.839 1.786-2.983c2.845-1.738 4.973-4.498 4.85-8.863-.079-3.49-2.148-6.825-5.234-8.417V5.238Zm-9.661 12.72v1.771h-.414l2.178 3.656 3.244-5.427 3.253 5.427 2.189-3.656h-.413v-1.771h3.532v1.771h-1.055l-4.253 7.1-3.245-5.417-3.24 5.417-4.253-7.1h-1.066v-1.771h3.543Zm3.395-8.871v1.78h-.443v3.54h4.128v-3.54h-.44v-1.78h2.946v1.78l-.44-.009v7.1h.44v1.781h-2.947v-1.781h.441v-1.77h-4.128v1.77h.443v1.781h-2.957v-1.781l.45.01v-7.102h-.45v-1.78h2.957Zm5.825-3.405v2.221h-2.064v-.442h-1.114v4.137h.44v1.78h-2.946v-1.78h.442V7.452h-1.104v.451h-2.062v-2.22h8.408Z" fill="#fff"/>
</svg>
