<svg width="155" height="32" viewBox="0 0 155 32" xmlns="http://www.w3.org/2000/svg" aria-hidden="true">
  <path d="M8.897 5.01V3.33h-1.35v7.524h1.259v2.685H3.074v-2.685h1.26V3.33H3.036v1.68H.5V.5h10.916v4.51zm12.76 4.694h-7.302c.475 1.04 1.406 1.57 2.41 1.57.675 0 1.277-.22 1.697-.675h2.958c-.804 1.935-2.593 3.25-4.655 3.25-2.775 0-5.185-2.155-5.185-5.223 0-2.995 2.319-5.223 5.112-5.223 2.701 0 5.11 2.1 5.11 5.15 0 .475-.072.84-.145 1.15ZM16.655 5.96a2.48 2.48 0 0 0-2.318 1.625h4.8c-.474-1.113-1.46-1.625-2.482-1.625Zm11.281 7.889c-2.757 0-5.166-2.283-5.166-5.241 0-2.922 2.318-5.223 4.928-5.223.931 0 1.698.347 2.374 1.04v-.73h2.446v3.543h-2.702c-.475-.603-1.04-1.005-1.88-1.005-1.278 0-2.228 1.078-2.228 2.393 0 1.351 1.023 2.374 2.319 2.374.712 0 1.333-.31 1.68-.913h3.212a5.236 5.236 0 0 1-4.983 3.762Zm13.18-.31V8.426c0-1.041-.183-2.082-1.607-2.082-.93 0-1.698.53-1.698 1.972v2.538h1.041v2.685h-4.984v-2.685h1.04v-7.67h-1.04V.5h3.943v4.493c.64-.987 1.552-1.498 2.702-1.498 1.99 0 3.505 1.589 3.505 4.237v3.122h1.022v2.685h-3.924Zm12.321 0V8.005c0-1.15-.566-1.661-1.534-1.661-1.643 0-1.752 1.241-1.752 2.282v2.228h1.022v2.685h-4.965v-2.685h1.04V6.362h-1.04V3.696h3.943v1.278c.566-.968 1.478-1.479 2.628-1.479 1.589 0 2.903.877 3.378 2.173.164.439.182.986.182 1.516v3.67h1.04v2.685h-3.942Zm5.11 0v-2.685h1.04V6.362h-1.04V3.696h3.943v7.158h1.023v2.685h-4.966Zm1.04-10.355V.5h2.903v2.684h-2.902Zm9.73 10.574c-1.35 0-1.99-.42-2.5-.84v.62h-1.99v-2.83H67.6c.11.676.493.968 1.223.968.62 0 .986-.31.986-.785 0-.694-.694-.858-2.628-1.388-1.607-.438-2.593-1.479-2.593-2.922 0-1.735 1.424-3.104 3.578-3.104 1.296 0 1.771.456 2.118.785v-.603h1.917v2.85h-2.63c-.054-.567-.4-.877-.985-.877-.529 0-.93.292-.93.712 0 1.57 5.22.493 5.22 4.255 0 1.753-1.35 3.159-3.56 3.159Zm9.656.091c-2.756 0-5.166-2.283-5.166-5.241 0-2.922 2.319-5.223 4.93-5.223.93 0 1.697.347 2.372 1.04v-.73h2.446v3.543h-2.701c-.475-.603-1.041-1.005-1.88-1.005-1.279 0-2.228 1.078-2.228 2.393 0 1.351 1.022 2.374 2.319 2.374.711 0 1.332-.31 1.679-.913h3.213a5.235 5.235 0 0 1-4.984 3.762Zm13.18-.31V8.426c0-1.041-.183-2.082-1.606-2.082-.931 0-1.698.53-1.698 1.972v2.538h1.04v2.685h-4.983v-2.685h1.04v-7.67h-1.04V.5h3.943v4.493c.639-.987 1.552-1.498 2.702-1.498 1.99 0 3.505 1.589 3.505 4.237v3.122h1.022v2.685h-3.925Zm14.95-3.835H99.8c.475 1.04 1.406 1.57 2.41 1.57.675 0 1.278-.22 1.697-.675h2.958c-.803 1.935-2.592 3.25-4.655 3.25-2.775 0-5.185-2.155-5.185-5.223 0-2.995 2.319-5.223 5.112-5.223 2.702 0 5.111 2.1 5.111 5.15 0 .475-.073.84-.146 1.15ZM102.1 5.96a2.48 2.48 0 0 0-2.318 1.625h4.8c-.474-1.113-1.46-1.625-2.482-1.625Zm10.807 7.798c-1.35 0-1.99-.42-2.5-.84v.62h-1.99v-2.83h2.774c.11.676.493.968 1.223.968.62 0 .986-.31.986-.785 0-.694-.694-.858-2.629-1.388-1.606-.438-2.592-1.479-2.592-2.922 0-1.735 1.424-3.104 3.578-3.104 1.296 0 1.77.456 2.118.785v-.603h1.916v2.85h-2.628c-.055-.567-.402-.877-.986-.877-.53 0-.931.292-.931.712 0 1.57 5.221.493 5.221 4.255 0 1.753-1.351 3.159-3.56 3.159ZM37.064 31.69v-2.685h1.26v-2.41h-4.108v2.41h1.26v2.685h-5.732v-2.685h1.26v-7.67h-1.26v-2.684h5.732v2.684h-1.26v2.228h4.107v-2.228h-1.26v-2.684h5.733v2.684h-1.26v7.67h1.26v2.685zm7.118 0v-2.685h1.04v-4.492h-1.04v-2.666h3.943v7.158h1.022v2.685h-4.965Zm1.04-10.355v-2.684h2.903v2.684h-2.902Zm5.166 10.355v-2.685h1.04v-7.67h-1.04v-2.684h3.943v10.354h1.04v2.685zm10.222-7.177v4.492h1.023v2.685h-4.966v-2.685h1.04v-4.492h-1.04v-2.666h1.04c.128-2.813 1.552-3.653 4.126-3.653v2.539c-.073-.019-.146-.019-.255-.019-.73 0-.95.457-.968 1.132h1.223v2.667H60.61Zm7.174 7.396c-1.351 0-1.99-.42-2.501-.84v.621h-1.99v-2.83h2.775c.11.675.493.967 1.223.967.62 0 .986-.31.986-.785 0-.694-.694-.858-2.629-1.388-1.606-.438-2.592-1.479-2.592-2.922 0-1.734 1.424-3.104 3.578-3.104 1.296 0 1.77.457 2.117.785v-.603h1.917v2.849H68.04c-.055-.566-.402-.877-.986-.877-.53 0-.93.292-.93.713 0 1.57 5.22.493 5.22 4.254 0 1.754-1.351 3.16-3.56 3.16Zm18.126-7.396L83.5 31.69h-2.72l-1.551-5.15-1.88 5.15h-2.61l-1.99-7.177h-.968v-2.666h4.618v2.666h-.821l.821 3.123 1.753-5.79h2.355l1.68 5.79.894-3.123h-.822v-2.666h4.765v2.666zm11.682 3.342h-7.301c.474 1.04 1.405 1.57 2.41 1.57.675 0 1.277-.219 1.697-.676h2.957C96.552 30.685 94.763 32 92.7 32c-2.774 0-5.184-2.155-5.184-5.223 0-2.995 2.318-5.223 5.111-5.223 2.702 0 5.112 2.1 5.112 5.15 0 .475-.074.84-.147 1.15Zm-5.001-3.744a2.48 2.48 0 0 0-2.319 1.625h4.802c-.475-1.113-1.461-1.625-2.483-1.625Zm10.276 3.069v1.825h1.023v2.685h-4.966v-2.685h1.04v-4.492h-1.04v-2.666h3.688v1.479c.803-1.206 1.588-1.534 2.792-1.625v2.976c-1.642.091-2.537.968-2.537 2.502Zm10.643 4.51-3.341-4.401v4.4h-3.943v-2.684h1.04v-7.67h-1.04v-2.684h3.943v7.615l1.826-2.027h-.84v-2.392h5.111v2.666h-.95l-2.08 2.173 2.08 2.32h1.388v2.684h-3.194zM137.13.717a16.339 16.339 0 0 1 2.947 0l.536 3.206a12.54 12.54 0 0 1 2.362.633c.687-.835 1.376-1.667 2.064-2.501.894.402 1.748.903 2.551 1.471l-1.134 3.042c.637.52 1.218 1.107 1.739 1.742l3.033-1.137c.562.81 1.073 1.657 1.469 2.561-.833.688-1.663 1.377-2.495 2.067.282.768.505 1.559.633 2.367 1.237.225 2.537.342 3.191.45.041.582.053 2.162.006 3.042l-3.197.539c-.128.808-.351 1.6-.633 2.367.83.69 1.662 1.379 2.495 2.069-.4.901-.903 1.754-1.469 2.558-1.01-.378-2.023-.755-3.033-1.134a12.664 12.664 0 0 1-1.739 1.742l1.134 3.04a15.11 15.11 0 0 1-2.551 1.471l-2.064-2.5c-.764.287-1.557.504-2.362.634l-.536 3.204c-.981.09-1.966.09-2.947 0-.18-1.067-.358-2.136-.539-3.204a12.235 12.235 0 0 1-2.36-.635l-2.063 2.501a15.216 15.216 0 0 1-2.551-1.471c.376-1.014.754-2.026 1.131-3.04a11.861 11.861 0 0 1-1.727-1.742l-3.042 1.134a15.32 15.32 0 0 1-1.469-2.558l2.495-2.07a12.675 12.675 0 0 1-.633-2.366l-3.197-.539a17.293 17.293 0 0 1 0-2.953l3.197-.539a12.84 12.84 0 0 1 .633-2.367l-2.495-2.067c.397-.904.905-1.754 1.469-2.56l3.042 1.136a11.765 11.765 0 0 1 1.727-1.742l-1.131-3.042a15.353 15.353 0 0 1 2.551-1.471c.687.834 1.377 1.666 2.064 2.5a12.746 12.746 0 0 1 2.36-.632l.538-3.206Zm6.123 4.521h-9.301v2.204c-3.057 1.586-5.14 4.878-5.222 8.348-.188 3.55 1.707 7.101 4.766 8.885.677.954 1.23 2.03 1.858 3.03l1.104-1.839a9.96 9.96 0 0 0 4.29 0l1.103 1.839 1.786-2.983c2.845-1.738 4.973-4.498 4.85-8.863-.079-3.49-2.148-6.825-5.234-8.417V5.238Zm-9.661 12.72v1.771h-.414l2.178 3.656 3.244-5.427 3.253 5.427 2.189-3.656h-.413v-1.771h3.532v1.771h-1.055l-4.253 7.1-3.245-5.417-3.24 5.417-4.253-7.1h-1.066v-1.771h3.543Zm3.395-8.871v1.78h-.443v3.54h4.128v-3.54h-.44v-1.78h2.946v1.78l-.44-.009v7.1h.44v1.781h-2.947v-1.781h.441v-1.77h-4.128v1.77h.443v1.781h-2.957v-1.781l.45.01v-7.102h-.45v-1.78h2.957Zm5.825-3.405v2.221h-2.064v-.442h-1.114v4.137h.44v1.78h-2.946v-1.78h.442V7.452h-1.104v.451h-2.062v-2.22h8.408Z" fill="#039"/>
</svg>
