<svg width="187" height="85" viewBox="0 0 187 85" xmlns="http://www.w3.org/2000/svg" aria-hidden="true">
  <rect width="100%" height="100%" fill="#fff"/>
  <g fill="none">
    <path d="M62.436 3.959c0 .398-.05.746-.15 1.045-.1.299-.236.556-.408.772-.171.215-.371.39-.598.522a2.918 2.918 0 0 1-.707.3v.032c.3.056.58.16.84.316a2.64 2.64 0 0 1 1.147 1.402c.117.315.175.66.175 1.037 0 .454-.078.868-.233 1.244a2.539 2.539 0 0 1-.723.98c-.327.276-.74.492-1.24.647-.498.155-1.091.232-1.779.232h-2.345V1.038h2.212c.676 0 1.256.07 1.738.208.482.138.879.334 1.19.589a2.2 2.2 0 0 1 .673.92c.138.36.208.761.208 1.204Zm-1.464.05c0-.532-.189-.969-.565-1.311-.377-.343-.97-.515-1.78-.515h-.765v3.95h.748c.776 0 1.364-.189 1.763-.565.4-.376.599-.896.599-1.56Zm.216 5.276c0-.62-.202-1.109-.607-1.468-.404-.36-.984-.54-1.738-.54h-.981v4.016h.898c.854 0 1.472-.169 1.855-.506.382-.337.573-.838.573-1.502Zm8.914 3.203h-1.23v-.896h-.034a2.168 2.168 0 0 1-.64.655 2.85 2.85 0 0 1-.624.307 2.374 2.374 0 0 1-.814.133c-.355 0-.674-.052-.957-.157a1.74 1.74 0 0 1-.723-.507c-.2-.232-.352-.533-.457-.904-.106-.37-.159-.827-.159-1.369V4.523h1.348V9.65c0 .664.108 1.137.324 1.42.216.281.551.422 1.006.422.388 0 .715-.096.981-.29.266-.194.477-.384.632-.573V4.523h1.347v7.965Zm6.42 0V7.36c0-.674-.114-1.158-.341-1.452-.227-.293-.574-.44-1.04-.44-.399 0-.731.1-.997.3a3.654 3.654 0 0 0-.632.58v6.14h-1.347V4.523h1.23v.896h.033a2.082 2.082 0 0 1 .649-.656c.177-.116.388-.218.632-.306.244-.089.521-.133.832-.133.354 0 .676.052.964.157.289.105.532.274.732.507.2.232.355.533.466.904.11.37.166.827.166 1.369v5.227h-1.347Zm2.993-3.866c0-.808.106-1.483.316-2.025.211-.542.483-.979.815-1.31.333-.333.71-.568 1.131-.706a4.035 4.035 0 0 1 1.264-.207c.255 0 .477.019.665.058.189.038.344.085.466.14V.757l1.347-.15v11.882h-1.23v-.846h-.034a1.907 1.907 0 0 1-.549.622 2.2 2.2 0 0 1-.582.299 2.426 2.426 0 0 1-.815.124c-.377 0-.734-.074-1.072-.224a2.314 2.314 0 0 1-.89-.714c-.255-.326-.457-.746-.607-1.26-.15-.515-.225-1.137-.225-1.867Zm3.16 2.87a1.745 1.745 0 0 0 1.306-.548 1.78 1.78 0 0 0 .191-.232V5.801a2.013 2.013 0 0 0-.424-.2 1.89 1.89 0 0 0-.607-.082 2.4 2.4 0 0 0-.873.157c-.272.105-.507.28-.707.523-.2.243-.358.559-.474.946-.116.387-.175.863-.175 1.427 0 .553.047 1.015.142 1.385.094.371.224.67.39.896.167.227.355.39.566.49.21.1.432.15.665.15Zm10.029-4.28c0 .342-.011.638-.034.887a23.51 23.51 0 0 1-.066.655h-4.075c.045.94.247 1.632.607 2.075.36.442.879.663 1.555.663.233 0 .444-.027.632-.083a2.386 2.386 0 0 0 1.048-.614l.499.946c-.056.056-.139.136-.25.24-.11.106-.26.211-.449.316a3.227 3.227 0 0 1-.698.274 3.673 3.673 0 0 1-.981.116c-.5 0-.951-.083-1.356-.249a2.563 2.563 0 0 1-1.03-.771c-.283-.349-.502-.791-.658-1.328-.155-.536-.233-1.18-.233-1.933 0-.708.08-1.32.242-1.834.16-.514.38-.937.657-1.27.277-.331.598-.577.964-.738.366-.16.76-.24 1.18-.24.766 0 1.365.24 1.797.722.432.48.649 1.203.649 2.165Zm-2.528-1.793c-.477 0-.86.2-1.148.597-.288.399-.454.974-.499 1.726h2.91c.012-.055.02-.135.026-.24.005-.106.008-.219.008-.34 0-.554-.11-.982-.333-1.287-.221-.304-.543-.456-.964-.456Zm7.766.714a3.39 3.39 0 0 0-.482-.407c-.233-.171-.538-.257-.915-.257-.354 0-.626.083-.815.249a.77.77 0 0 0-.282.597c0 .299.086.545.258.738.171.194.435.401.79.623l.498.298c.544.321.97.667 1.281 1.037.31.371.466.85.466 1.436 0 .63-.22 1.162-.657 1.593-.438.431-1.067.647-1.888.647a3.22 3.22 0 0 1-.848-.1 3.707 3.707 0 0 1-.64-.232 2.104 2.104 0 0 1-.458-.29 3.031 3.031 0 0 1-.3-.29l.65-1.063c.066.067.146.144.24.233a2.182 2.182 0 0 0 .79.464c.167.056.36.083.583.083.399 0 .704-.088.914-.265a.816.816 0 0 0 .316-.647c0-.188-.024-.352-.074-.49a1.12 1.12 0 0 0-.225-.373 2.09 2.09 0 0 0-.366-.315c-.144-.1-.31-.21-.499-.332l-.499-.316c-.499-.32-.89-.658-1.172-1.012-.283-.354-.424-.807-.424-1.36 0-.3.058-.573.174-.822.117-.249.28-.465.491-.647a2.39 2.39 0 0 1 .74-.432c.283-.105.585-.157.906-.157.31 0 .577.03.799.091a2.391 2.391 0 0 1 .973.514c.105.095.19.175.257.241l-.582.963Zm1.913 4.33c0-.464.089-.851.266-1.161.177-.31.416-.561.715-.755.3-.194.652-.332 1.056-.415a6.407 6.407 0 0 1 1.29-.124h.415v-.764c0-.674-.12-1.14-.358-1.394s-.574-.381-1.006-.381c-.399 0-.732.086-.998.257a5.99 5.99 0 0 0-.632.456l-.565-.896c.089-.088.202-.188.34-.298.14-.111.308-.216.508-.316s.427-.182.682-.249c.255-.066.543-.1.865-.1.82 0 1.441.228 1.862.681.422.454.632 1.184.632 2.19v3.635c0 .342.011.677.034 1.003.022.327.044.545.066.656h-1.28l-.05-.88h-.034c-.044.1-.11.213-.2.34a1.631 1.631 0 0 1-.332.35 2 2 0 0 1-.482.273c-.189.077-.41.116-.665.116-.3 0-.58-.055-.84-.166a2.07 2.07 0 0 1-1.131-1.17 2.429 2.429 0 0 1-.158-.887Zm2.411 1.08c.189 0 .355-.028.5-.084a1.63 1.63 0 0 0 .374-.199c.105-.077.194-.163.266-.257.072-.094.135-.174.19-.24v-1.76l-.432.017c-.643.022-1.13.133-1.463.332-.333.199-.499.52-.499.962 0 .41.094.717.283.921.188.205.449.307.781.307Zm9.048.945V7.36c0-.674-.114-1.158-.341-1.452-.228-.293-.574-.44-1.04-.44-.399 0-.732.1-.998.3a3.691 3.691 0 0 0-.632.58v6.14h-1.347V4.523h1.23v.896h.034a2.082 2.082 0 0 1 .649-.656c.177-.116.388-.218.632-.306a2.41 2.41 0 0 1 .831-.133c.355 0 .677.052.965.157.288.105.532.274.732.507.2.232.354.533.465.904.111.37.167.827.167 1.369v5.227h-1.347Zm6.802-6.355a3.39 3.39 0 0 0-.483-.407c-.233-.171-.538-.257-.914-.257-.355 0-.627.083-.815.249a.77.77 0 0 0-.283.597c0 .299.086.545.258.738.172.194.435.401.79.623l.499.298c.543.321.97.667 1.28 1.037.31.371.466.85.466 1.436 0 .63-.22 1.162-.657 1.593-.438.431-1.067.647-1.888.647a3.22 3.22 0 0 1-.848-.1 3.707 3.707 0 0 1-.64-.232 2.104 2.104 0 0 1-.458-.29 3.031 3.031 0 0 1-.299-.29l.649-1.063c.066.067.147.144.241.233a2.182 2.182 0 0 0 .79.464c.166.056.36.083.582.083.4 0 .704-.088.915-.265a.816.816 0 0 0 .316-.647c0-.188-.025-.352-.075-.49a1.12 1.12 0 0 0-.225-.373 2.09 2.09 0 0 0-.366-.315c-.144-.1-.31-.21-.499-.332l-.498-.316c-.5-.32-.89-.658-1.173-1.012-.283-.354-.424-.807-.424-1.36a1.905 1.905 0 0 1 .665-1.469 2.39 2.39 0 0 1 .74-.432c.283-.105.585-.157.907-.157.31 0 .576.03.798.091a2.391 2.391 0 0 1 .973.514c.105.095.191.175.258.241l-.582.963Zm5.787-.515h-1.746v4.414c0 .564.072.949.216 1.153.144.205.388.307.732.307.2 0 .371-.027.515-.083.144-.055.25-.105.316-.149l.183 1.079a2.303 2.303 0 0 1-.399.207c-.21.094-.493.141-.848.141-.687 0-1.203-.19-1.547-.572-.343-.382-.515-1.015-.515-1.9V5.618h-.965v-.896l.965-.2.15-2.223h1.197v2.224h1.912l-.166 1.095Zm1.064 4.846c0-.465.09-.852.267-1.162.177-.31.415-.561.715-.755a3.043 3.043 0 0 1 1.056-.415 6.407 6.407 0 0 1 1.289-.124h.415v-.764c0-.674-.119-1.14-.357-1.394-.239-.254-.574-.381-1.006-.381-.4 0-.732.086-.998.257a5.99 5.99 0 0 0-.632.456l-.566-.896c.09-.088.203-.188.341-.298.139-.111.308-.216.508-.316s.426-.182.681-.249c.255-.066.544-.1.865-.1.82 0 1.442.228 1.863.681.421.454.632 1.184.632 2.19v3.635c0 .342.01.677.033 1.003.022.327.044.545.067.656h-1.28l-.05-.88h-.034c-.044.1-.11.213-.2.34-.088.128-.2.244-.332.35a2 2 0 0 1-.483.273 1.75 1.75 0 0 1-.665.116c-.3 0-.58-.055-.84-.166a2.07 2.07 0 0 1-1.13-1.17 2.429 2.429 0 0 1-.159-.887Zm2.412 1.078c.188 0 .355-.027.499-.083a1.59 1.59 0 0 0 .374-.199c.105-.077.194-.163.266-.257.072-.094.136-.174.191-.24v-1.76l-.432.017c-.643.022-1.13.133-1.464.332-.332.199-.498.52-.498.962 0 .41.094.717.282.921.189.205.45.307.782.307Zm6.02-.913c0 .332.047.565.142.697.094.133.257.2.49.2a1.175 1.175 0 0 0 .499-.1l.117.996a2.843 2.843 0 0 1-.366.132 2.48 2.48 0 0 1-.715.083c-.455 0-.82-.138-1.098-.415-.277-.276-.416-.768-.416-1.476V.756l1.347-.15V10.63Zm5.871-5.01h-1.746v4.413c0 .564.072.949.216 1.153.144.205.388.307.732.307.2 0 .371-.027.515-.083.144-.055.25-.105.316-.149l.183 1.079a2.303 2.303 0 0 1-.399.207c-.21.094-.493.141-.848.141-.688 0-1.203-.19-1.547-.572-.343-.382-.515-1.015-.515-1.9V5.618h-.965v-.896l.965-.2.15-2.223h1.197v2.224h1.912l-.166 1.095ZM62.884 18.916h-3.06V29.22h-1.447V18.917h-3.06v-1.145h7.667l-.1 1.145Zm5.156 5.028c0 .342-.011.638-.034.887-.022.25-.044.468-.066.656h-4.075c.045.94.247 1.632.607 2.074.36.442.88.664 1.555.664.233 0 .444-.028.632-.083a2.386 2.386 0 0 0 1.048-.614l.499.946a14.37 14.37 0 0 1-.25.24c-.11.105-.26.21-.449.316a3.227 3.227 0 0 1-.698.273 3.673 3.673 0 0 1-.981.116c-.5 0-.951-.082-1.356-.248a2.563 2.563 0 0 1-1.03-.772c-.283-.349-.502-.791-.658-1.328-.155-.536-.232-1.18-.232-1.933 0-.708.08-1.319.24-1.833.161-.515.38-.938.658-1.27.277-.332.598-.578.964-.738.366-.16.76-.24 1.181-.24.765 0 1.364.24 1.796.72.432.482.649 1.204.649 2.167Zm-2.528-1.793c-.477 0-.86.2-1.148.598-.288.398-.454.973-.499 1.726h2.91c.012-.056.02-.136.026-.241.005-.105.008-.219.008-.34 0-.553-.11-.982-.333-1.286-.221-.305-.543-.457-.964-.457Zm8.764.648a6.14 6.14 0 0 0-.158-.15 1.682 1.682 0 0 0-.274-.199 1.916 1.916 0 0 0-.4-.174 1.742 1.742 0 0 0-.531-.075c-.289 0-.558.053-.807.158-.25.105-.466.274-.649.506-.183.232-.327.534-.432.904-.105.37-.158.822-.158 1.353 0 .586.047 1.078.141 1.477.095.398.225.716.391.954s.369.409.607.514c.238.105.502.158.79.158.41 0 .724-.072.94-.216a3.21 3.21 0 0 0 .457-.348l.549.929a2.446 2.446 0 0 1-.241.24 2.077 2.077 0 0 1-.408.274 2.742 2.742 0 0 1-.607.224 3.336 3.336 0 0 1-.823.091c-.443 0-.86-.071-1.247-.215a2.466 2.466 0 0 1-1.015-.714c-.288-.332-.515-.763-.682-1.294-.166-.531-.25-1.19-.25-1.975 0-.763.1-1.41.3-1.941.2-.531.46-.96.782-1.286a2.978 2.978 0 0 1 1.073-.714c.393-.15.79-.224 1.189-.224.3 0 .562.028.79.083.227.055.421.125.582.207.16.083.294.172.399.266.105.094.191.174.258.24l-.566.947Zm6.337 6.421v-5.127c0-.675-.114-1.159-.341-1.452-.228-.293-.574-.44-1.04-.44-.399 0-.732.1-.998.299a3.732 3.732 0 0 0-.632.58v6.14h-1.347V17.49l1.347-.149v4.73h.034a2.72 2.72 0 0 1 .208-.266 1.9 1.9 0 0 1 .39-.332 2.556 2.556 0 0 1 1.447-.415c.699 0 1.253.227 1.663.68.41.454.616 1.206.616 2.257v5.227h-1.347Zm7.716 0v-5.127c0-.675-.113-1.159-.34-1.452-.228-.293-.574-.44-1.04-.44-.4 0-.732.1-.998.299a3.694 3.694 0 0 0-.632.58v6.14h-1.347v-7.965h1.23v.896h.034a2.082 2.082 0 0 1 .649-.656c.177-.115.388-.218.632-.306.243-.089.52-.133.831-.133.355 0 .676.053.965.158.288.105.532.274.731.506.2.232.355.534.466.904.11.37.166.827.166 1.37v5.226H88.33Zm4.707 0h-1.347v-7.965h1.347v7.965Zm-.665-9.89c-.278 0-.5-.088-.666-.265-.166-.177-.25-.41-.25-.697 0-.277.084-.503.25-.68.167-.177.388-.266.666-.266a.85.85 0 0 1 .648.266c.167.177.25.403.25.68 0 .288-.083.52-.25.697a.85.85 0 0 1-.648.265Zm6.17 3.535a3.39 3.39 0 0 0-.483-.407c-.232-.171-.537-.257-.914-.257-.355 0-.627.083-.815.249a.77.77 0 0 0-.283.597c0 .3.086.545.258.739.172.193.435.4.79.622l.499.299c.543.32.97.666 1.28 1.037.31.37.466.849.466 1.435 0 .63-.22 1.162-.657 1.593-.438.432-1.067.648-1.888.648-.321 0-.604-.034-.848-.1a3.707 3.707 0 0 1-.64-.232 2.104 2.104 0 0 1-.457-.29 3.031 3.031 0 0 1-.3-.291l.649-1.062c.066.066.147.144.241.232a2.182 2.182 0 0 0 .79.465c.166.055.36.083.582.083.4 0 .704-.089.915-.266a.816.816 0 0 0 .316-.647c0-.188-.025-.351-.075-.49a1.12 1.12 0 0 0-.225-.373 2.09 2.09 0 0 0-.366-.315c-.144-.1-.31-.21-.498-.332l-.5-.315c-.498-.321-.89-.658-1.172-1.012-.283-.355-.424-.808-.424-1.361a1.908 1.908 0 0 1 .665-1.469 2.39 2.39 0 0 1 .74-.431c.283-.105.585-.158.907-.158.31 0 .576.03.798.091a2.391 2.391 0 0 1 .973.515c.105.094.191.174.258.24l-.582.963Zm6.818-.066a6.14 6.14 0 0 0-.158-.15 1.682 1.682 0 0 0-.274-.199 1.916 1.916 0 0 0-.4-.174 1.742 1.742 0 0 0-.531-.075c-.289 0-.558.053-.807.158-.25.105-.466.274-.649.506-.183.232-.327.534-.432.904-.105.37-.158.822-.158 1.353 0 .586.047 1.078.141 1.477.095.398.225.716.391.954s.369.409.607.514c.239.105.502.158.79.158.41 0 .724-.072.94-.216a3.21 3.21 0 0 0 .457-.348l.549.929a2.446 2.446 0 0 1-.241.24 2.077 2.077 0 0 1-.408.274 2.742 2.742 0 0 1-.607.224 3.336 3.336 0 0 1-.823.091c-.443 0-.86-.071-1.247-.215a2.466 2.466 0 0 1-1.015-.714c-.288-.332-.515-.763-.682-1.294-.166-.531-.249-1.19-.249-1.975 0-.763.1-1.41.3-1.941.199-.531.46-.96.781-1.286a2.978 2.978 0 0 1 1.073-.714c.393-.15.79-.224 1.189-.224.3 0 .562.028.79.083.227.055.421.125.582.207.16.083.294.172.399.266.105.094.191.174.258.24l-.566.947Zm6.337 6.421v-5.127c0-.675-.114-1.159-.341-1.452-.228-.293-.574-.44-1.04-.44-.399 0-.731.1-.998.299a3.732 3.732 0 0 0-.632.58v6.14h-1.347V17.49l1.347-.149v4.73h.034a2.72 2.72 0 0 1 .208-.266 1.9 1.9 0 0 1 .39-.332 2.556 2.556 0 0 1 1.447-.415c.699 0 1.253.227 1.663.68.41.454.616 1.206.616 2.257v5.227h-1.347Zm8.481-5.276c0 .342-.01.638-.033.887-.022.25-.044.468-.066.656h-4.075c.044.94.247 1.632.607 2.074.36.442.879.664 1.555.664.233 0 .443-.028.632-.083a2.386 2.386 0 0 0 1.048-.614l.499.946c-.056.055-.139.135-.25.24-.11.105-.26.21-.449.316a3.227 3.227 0 0 1-.698.273 3.673 3.673 0 0 1-.982.117c-.498 0-.95-.083-1.355-.25a2.563 2.563 0 0 1-1.031-.771c-.283-.349-.502-.791-.657-1.328-.155-.536-.233-1.18-.233-1.933 0-.708.08-1.319.241-1.833.161-.515.38-.938.657-1.27.277-.332.599-.578.965-.738.366-.16.76-.24 1.18-.24.766 0 1.364.24 1.797.72.432.482.648 1.204.648 2.167Zm-2.528-1.793c-.476 0-.859.2-1.147.598-.288.398-.455.973-.499 1.726h2.91c.011-.056.02-.136.025-.241.006-.105.009-.219.009-.34 0-.553-.111-.982-.333-1.286-.222-.305-.543-.457-.965-.457Zm7.767.714a3.39 3.39 0 0 0-.482-.407c-.233-.171-.538-.257-.915-.257-.355 0-.626.083-.815.249a.77.77 0 0 0-.283.597c0 .3.086.545.258.739.172.193.435.4.79.622l.5.299c.542.32.97.666 1.28 1.037.31.37.465.849.465 1.435 0 .63-.219 1.162-.657 1.593-.438.432-1.067.648-1.887.648-.322 0-.604-.034-.848-.1a3.707 3.707 0 0 1-.64-.232 2.104 2.104 0 0 1-.458-.29 3.031 3.031 0 0 1-.3-.291l.65-1.062c.066.066.146.144.24.232a2.182 2.182 0 0 0 .79.465c.167.055.36.083.582.083.4 0 .705-.089.915-.266a.816.816 0 0 0 .316-.647c0-.188-.025-.351-.075-.49a1.12 1.12 0 0 0-.224-.373 2.09 2.09 0 0 0-.366-.315c-.144-.1-.31-.21-.499-.332l-.499-.315c-.499-.321-.89-.658-1.172-1.012-.283-.355-.425-.808-.425-1.361 0-.299.059-.573.175-.822.117-.248.28-.464.49-.647a2.39 2.39 0 0 1 .74-.431c.284-.105.586-.158.907-.158.31 0 .577.03.798.091a2.391 2.391 0 0 1 .973.515c.106.094.192.174.258.24l-.582.963Zm13.82 6.355h-1.447v-5.21h-4.74v5.21h-1.446V17.77h1.447v5.095h4.74v-5.094h1.446v11.45Zm3.692 0h-1.347v-7.965h1.347v7.965Zm-.665-9.89c-.277 0-.499-.088-.665-.265-.166-.177-.25-.41-.25-.697 0-.277.084-.503.25-.68.166-.177.388-.266.665-.266a.85.85 0 0 1 .649.266c.166.177.25.403.25.68 0 .288-.084.52-.25.697a.85.85 0 0 1-.649.265Zm4.058 8.032c0 .332.047.564.141.697.095.133.258.199.491.199.122 0 .225-.011.308-.033a.934.934 0 0 0 .19-.067l.117.996a2.843 2.843 0 0 1-.366.133 2.48 2.48 0 0 1-.715.083c-.454 0-.82-.139-1.097-.415-.277-.277-.416-.769-.416-1.477v-9.99l1.347-.149v10.023Zm5.82-5.012h-1.629v6.87h-1.347v-6.87h-.965v-.896l.965-.182V19.68c0-.432.06-.802.183-1.112a2.2 2.2 0 0 1 .482-.763c.2-.2.433-.343.699-.432a2.68 2.68 0 0 1 .848-.132c.288 0 .532.038.732.116.2.077.332.138.399.182l-.283 1.112a1.66 1.66 0 0 0-.283-.141 1.191 1.191 0 0 0-.449-.075c-.321 0-.565.1-.732.299-.166.2-.249.564-.249 1.095v1.427h1.796l-.166 1.095Zm4.707.515a3.39 3.39 0 0 0-.482-.407c-.233-.171-.538-.257-.915-.257-.355 0-.626.083-.815.249a.77.77 0 0 0-.282.597c0 .3.086.545.258.739.171.193.435.4.79.622l.498.299c.544.32.97.666 1.28 1.037.311.37.467.849.467 1.435 0 .63-.22 1.162-.657 1.593-.438.432-1.067.647-1.888.647a3.22 3.22 0 0 1-.848-.1 3.707 3.707 0 0 1-.64-.231 2.104 2.104 0 0 1-.458-.29 3.031 3.031 0 0 1-.3-.291l.65-1.062c.066.066.146.144.24.232a2.182 2.182 0 0 0 .79.465c.167.055.36.083.583.083.399 0 .704-.089.914-.266a.816.816 0 0 0 .316-.647c0-.188-.024-.351-.074-.49a1.12 1.12 0 0 0-.225-.373 2.09 2.09 0 0 0-.366-.315c-.144-.1-.31-.21-.499-.332l-.499-.315c-.499-.321-.89-.658-1.172-1.012-.283-.355-.424-.808-.424-1.361 0-.299.058-.573.174-.822.117-.248.28-.464.491-.647a2.39 2.39 0 0 1 .74-.431c.283-.105.585-.158.906-.158.31 0 .577.03.799.091a2.391 2.391 0 0 1 .973.515c.105.094.19.174.257.24l-.582.963Zm11.509-1.61-2.428 7.965h-1.198l-.815-2.787a19.525 19.525 0 0 1-.307-1.112 5.98 5.98 0 0 1-.158-.98h-.033a5.12 5.12 0 0 1-.183.996c-.1.354-.217.725-.35 1.112l-.914 2.771h-1.148l-2.511-7.965h1.447l1.197 4.514c.111.42.208.81.291 1.17.083.36.13.7.142 1.02h.033c.033-.32.102-.655.208-1.004.105-.348.224-.727.357-1.136l.865-2.606-.599-1.958h1.397l1.214 4.398c.122.453.233.88.333 1.277.1.399.155.742.166 1.03h.034c.022-.288.077-.634.166-1.038.089-.404.194-.827.316-1.27l1.18-4.397h1.298Zm6.253 2.689c0 .342-.011.638-.033.887-.022.25-.045.468-.067.656h-4.074c.044.94.246 1.632.607 2.074.36.442.878.664 1.555.664.233 0 .443-.028.632-.083a2.386 2.386 0 0 0 1.047-.614l.5.946-.25.24c-.11.105-.26.21-.45.316a3.227 3.227 0 0 1-.698.273 3.673 3.673 0 0 1-.98.116c-.5 0-.952-.082-1.356-.248a2.563 2.563 0 0 1-1.031-.772c-.283-.349-.502-.791-.657-1.328-.156-.536-.233-1.18-.233-1.933 0-.708.08-1.319.241-1.833.16-.515.38-.938.657-1.27.277-.332.599-.578.965-.738.365-.16.759-.24 1.18-.24.765 0 1.364.24 1.796.72.433.482.65 1.204.65 2.167Zm-2.528-1.793c-.477 0-.859.2-1.147.598-.289.398-.455.973-.5 1.726h2.911c.011-.056.02-.136.025-.241.006-.105.008-.219.008-.34 0-.553-.11-.982-.332-1.286-.222-.305-.543-.457-.965-.457Zm7.833.282a.962.962 0 0 0-.216-.083 1.62 1.62 0 0 0-.449-.05c-.421 0-.751.114-.99.34a1.988 1.988 0 0 0-.507.74v5.84h-1.347v-7.965h1.23v1.079h.034c.056-.155.128-.307.216-.457.09-.149.2-.282.333-.398.133-.116.29-.207.474-.273.183-.067.402-.1.657-.1.188 0 .34.017.457.05.117.033.208.06.275.083l-.167 1.194Zm4.34 2.473L187 29.22h-1.613l-2.245-3.717h-.55v3.717h-1.346V17.49l1.347-.149v7.02h.565l2.146-3.104h1.596l-2.644 3.65ZM19.705 11.567c.038-.312.06-.635.06-.964 0-.18.002-.389-.02-.626 2.785-.039 5.228-2.041 5.228-4.343 0-1.172-.766-2.056-1.198-2.584a14.4 14.4 0 0 0 .294-.067c.408.354 1.565 1.612 1.565 3.2 0 2.762-2.767 5.327-5.929 5.384M16.9 1.947a1.893 1.893 0 0 0-.348-.827c.01-.282.126-.551.58-.33-.246.252-.056.696-.056.696s.503-.232.399-.564c.746.178.21 1.178-.575 1.025m-.647 1.418a2.909 2.909 0 0 0-.581-1.156c-.246-.29-.653-.635-1.2-.635-.25 0-.67.117-.937.23-.1-.18-.294-.617-.294-.814 0-.202.343-.407.998-.407 1.442 0 2.303.65 2.303 1.74 0 .384-.152.732-.289 1.042m3.704 18.546a.84.84 0 0 1 .346.063c.415 1.126 2.015 3.253 2.083 3.344l.014.02.023-.006c.393-.063 1.395-.214 2.234-.214h.02c.09 0 .193 0 .26.064.054.055.08.15.08.285 0 .208-.088.563-.194.715-.294-.32-.77-.463-1.533-.463-.23 0-.5.069-.647.108l-.06.012-.069.018.44.44c.68.677 1.267 1.261 1.267 1.65 0 .235-.23.54-.44.675-.045-.712-.767-1.666-1.47-2.2l-.06-.045-.01.251c-.01.17-.026.426-.026.699 0 1.357-.138 1.563-.61 1.563a.862.862 0 0 1-.25-.046c.265-.328.37-.76.37-1.518l-.005-.35-.004-.282c0-.311.032-.541.057-.727l.014-.104-.074-.01c-.22-.03-.63-.086-.943-.086-.672 0-1.128.061-1.458.37-.218-.175-.441-.478-.441-.669 0-.283.176-.305.408-.305.117 0 .226.017.377.035.29.043.724.107 1.62.107h.056l-.018-.054c-.227-.649-.85-1.591-1.85-2.803.09-.325.178-.537.493-.537m-8.629 3.34-.018.054h.056c.894 0 1.33-.064 1.62-.107.15-.018.26-.035.377-.035.23 0 .408.022.408.305 0 .191-.224.494-.44.67-.331-.31-.787-.371-1.458-.371-.314 0-.725.055-.945.086l-.035.004-.039.006.013.104c.026.186.059.416.059.727l-.005.282-.004.35c0 .758.105 1.19.372 1.518a.88.88 0 0 1-.253.046c-.472 0-.61-.206-.61-1.563 0-.273-.013-.528-.023-.699l-.014-.252-.059.046c-.701.534-1.425 1.488-1.469 2.2-.21-.135-.44-.44-.44-.674 0-.39.587-.974 1.266-1.651l.44-.44-.128-.03a2.747 2.747 0 0 0-.648-.108c-.762 0-1.237.144-1.532.463-.106-.152-.194-.507-.194-.715 0-.135.026-.23.08-.285.066-.064.17-.064.26-.064h.02c.839 0 1.842.15 2.233.214l.024.005.014-.02c.069-.09 1.667-2.217 2.084-3.343a.836.836 0 0 1 .345-.063c.315 0 .403.212.493.537-1 1.212-1.623 2.154-1.85 2.803M7.006 6.183c0-1.588 1.158-2.846 1.567-3.2.097.023.195.046.293.067-.433.528-1.199 1.412-1.199 2.584 0 2.326 2.49 4.345 5.31 4.345-.018.2-.027.408-.027.624 0 .343.02.663.053.964-3.19-.02-5.997-2.602-5.997-5.384m21.39 4.899c1.432 2.257 2.551 2.22 4.242 2.22-1.399-1.07-2.324-2.44-2.765-3.14l-2.614-4.173a6.168 6.168 0 0 0-1.923-3.39c.337-.127.616-.26.784-.387-1.706 0-3.397-.865-4.328-.865-.598 0-.982.357-.982.828.037.526.58 1.06 1.582 1.06.226 0 .517-.03.835-.082.543.754.98 1.436.98 2.41 0 1.826-2.189 3.25-4.398 3.25-.126 0-.245-.006-.37-.014-.199-.453-.866-1.213-.866-2.078 0-1.451.95-2.637.95-4.074 0-.894-.437-1.448-.604-1.678.27-.25.567-.559.637-.771-.158.068-.345.077-.618.077-1.06 0-1.923-.275-2.764-.275-.48 0-.61.148-.61.289 0 .051.007.104.021.13a2.839 2.839 0 0 0-.546-.153 4.277 4.277 0 0 0-.8-.07c-1.024 0-1.387.427-1.387.794 0 .31.244.876.523 1.308.398-.2.877-.336 1.095-.336.544 0 1.026.516 1.282 1.127-.365.044-.435.06-.804.06-.996 0-1.674-.356-1.814-.356-.012 0-.039.007-.039.03 0 .139.282.507.839.71.733.267 1.832.378 2.015.41 0 .031-.186.377-.394.444a.227.227 0 0 1-.13.004c-.766-.15-.98-.215-1.951-.583-.03-.01-.048.007-.048.038 0 .383.995 1.23 1.887 1.555-.745.948-1.674 1.918-2.113 3.398a5.437 5.437 0 0 1-.37.014c-2.209 0-4.397-1.424-4.397-3.25 0-.974.437-1.656.98-2.41.318.053.607.082.835.082 1.002 0 1.545-.534 1.584-1.06 0-.471-.385-.828-.984-.828-.931 0-2.62.865-4.33.865.17.126.449.26.784.387a6.174 6.174 0 0 0-1.921 3.39l-2.614 4.172c-.44.7-1.368 2.071-2.767 3.14 1.691 0 2.812.038 4.243-2.22l1.34-2.138c.1.277.221.548.365.813L3.283 14.01c-.443.706-1.363 2.064-2.767 3.14 1.69 0 2.812.04 4.243-2.217l2.293-3.664c.172.182.352.36.542.53L4.358 16.97c-.445.707-1.359 2.063-2.766 3.138 1.69 0 2.812.04 4.241-2.217L8.99 12.85c.208.13.42.258.642.378l-3.854 6.15c-.444.708-1.358 2.059-2.765 3.138 1.69 0 2.812.04 4.243-2.217l3.966-6.335c.235.09.472.176.714.252l-4.482 7.158c-.437.697-1.372 2.074-2.764 3.138 1.69 0 2.812.039 4.241-2.218l4.777-7.627c.05.008.097.015.144.025.13.413.22.798.22 1.181 0 2.397-1.576 4.514-3.468 6.148.122.053.333.071.527.071.391 0 .643-.02.82-.051-.438.994-1.38 2.278-1.856 2.942a13.778 13.778 0 0 0-2.11-.198c-.618 0-.687.36-.687.682 0 .559.262 1.004.567 1.252.115-.286.345-.668 1.486-.668.022 0 .061.003.114.007-.332.37-1.376 1.212-1.376 1.89 0 .449.493 1.122 1.143 1.122-.038-.145-.034-.277-.034-.378 0-.55.488-1.192.9-1.641-.012.134-.005.12-.005.276 0 1.298.117 1.895.943 1.895.405 0 .685-.222.781-.289-.536-.492-.564-.88-.564-1.607l.005-.63a3.528 3.528 0 0 0-.028-.547c.295-.04.415-.04.643-.04 0 0 1.173-.094 1.456.515.32-.291.782-.703.782-1.156 0-.3-.143-.638-.748-.638-.23 0-.949.139-1.551.139.162-.358.882-1.41 1.506-2.173.095.296.242.615.569.878.046-.491.334-2.043 1.103-2.951.09.613.21 1.242.21 2.568 0 3.227-.778 5.61-2.428 6.065.215.372.67.708 1.14.708.604 0 .932-.682 1.268-1.324.174.474.657 1.637 1.14 1.637.484 0 .967-1.163 1.142-1.637.334.642.664 1.324 1.268 1.324.47 0 .925-.336 1.14-.708-1.65-.455-2.429-2.838-2.429-6.065 0-1.326.12-1.955.21-2.568.77.908 1.059 2.46 1.102 2.95.329-.262.477-.58.57-.877.624.763 1.345 1.815 1.507 2.173-.602 0-1.323-.14-1.551-.14-.604 0-.747.34-.747.64 0 .452.463.864.782 1.155.28-.61 1.456-.516 1.456-.516.226 0 .347 0 .643.04-.028.16-.03.38-.028.547.003.256.003.441.004.63 0 .729-.028 1.116-.565 1.608.097.067.376.29.782.29.826 0 .944-.598.944-1.896 0-.156.005-.142-.007-.276.413.449.9 1.092.9 1.641 0 .1.006.233-.034.378.65 0 1.146-.673 1.146-1.122 0-.678-1.044-1.52-1.38-1.89.055-.004.094-.007.115-.007 1.142 0 1.372.382 1.487.668a1.62 1.62 0 0 0 .567-1.252c0-.322-.07-.682-.687-.682-.59 0-1.49.086-2.11.198-.477-.664-1.416-1.948-1.857-2.942.178.03.43.051.82.051.196 0 .406-.018.528-.07-1.893-1.635-3.47-3.752-3.47-6.149 0-.383.092-.768.222-1.181.046-.01.096-.017.144-.025l4.776 7.627c1.43 2.257 2.552 2.218 4.242 2.218-1.392-1.064-2.327-2.44-2.764-3.138l-4.484-7.158c.243-.076.482-.163.717-.252l3.965 6.335c1.431 2.256 2.552 2.217 4.243 2.217-1.407-1.08-2.321-2.43-2.766-3.137l-3.851-6.151c.218-.12.431-.247.638-.378l3.157 5.04c1.431 2.258 2.55 2.218 4.242 2.218-1.407-1.075-2.32-2.43-2.766-3.138l-3.237-5.17c.19-.17.372-.349.541-.531l2.296 3.664c1.43 2.256 2.551 2.217 4.242 2.217-1.406-1.076-2.323-2.434-2.767-3.14l-2.664-4.254c.143-.265.264-.536.365-.813l1.339 2.139Zm17.621 18.14h-4.891V1.333h4.891z" fill="#000"/>
    <path fill="red" d="M46.017 57.111h-4.891V29.222h4.891z"/>
    <path fill="#FC0" d="M46.017 85h-4.891V57.111h4.891z"/>
  </g>
</svg>
